<svg width="32" height="32" viewBox="0 0 32 32" fill="none" xmlns="http://www.w3.org/2000/svg">
<path d="M19.2687 31.7813C19.1125 31.7875 19.0125 31.8 18.9125 31.8C16.775 31.8 14.6438 31.7938 12.5063 31.8063C12.2063 31.8063 12.125 31.725 12.125 31.425C12.1313 26.45 12.1313 21.4688 12.1313 16.4938C12.1313 16.3625 12.1313 16.2313 12.1313 16.0625C10.9688 16.0625 9.8375 16.0625 8.6875 16.0625C8.6875 14.2875 8.6875 12.5438 8.6875 10.75C8.80625 10.75 8.91875 10.75 9.025 10.75C9.9625 10.75 10.9 10.7438 11.8375 10.7563C12.075 10.7563 12.1375 10.6875 12.1375 10.4563C12.125 9.06252 12.125 7.66252 12.1375 6.26877C12.1437 5.29377 12.3 4.34377 12.75 3.46252C13.3938 2.21877 14.4125 1.41252 15.7 0.912516C16.75 0.500016 17.8563 0.350016 18.9688 0.331266C20.7812 0.306266 22.5938 0.318766 24.4062 0.312516C24.575 0.312516 24.7125 0.306266 24.7125 0.543766C24.7062 2.26252 24.7062 3.98127 24.7062 5.70002C24.7062 5.71877 24.7 5.73752 24.675 5.81877C24.5687 5.81877 24.45 5.81877 24.3312 5.81877C23.2062 5.81877 22.0812 5.81252 20.9562 5.81877C20.3062 5.81877 19.7813 6.08127 19.45 6.65002C19.35 6.81877 19.2875 7.03752 19.2875 7.23752C19.2688 8.30002 19.2875 9.36252 19.275 10.425C19.275 10.675 19.35 10.7438 19.5938 10.7438C21.1562 10.7313 22.7188 10.7375 24.2812 10.7375C24.4062 10.7375 24.525 10.7375 24.7375 10.7375C24.5187 12.525 24.3062 14.275 24.0875 16.0438C22.4625 16.0438 20.8812 16.0438 19.2687 16.0438C19.2687 21.3 19.2687 26.525 19.2687 31.7813Z" fill="white"/>
</svg>
