<svg width="32" height="32" viewBox="0 0 32 32" fill="none" xmlns="http://www.w3.org/2000/svg">
<path d="M6.20263 0H8.12263L9.43996 4.936L10.6613 0H12.6L10.38 7.34V12.3493H8.47196V7.34L6.20263 0ZM14.9946 3.164C13.5026 3.164 12.5133 4.15067 12.5133 5.61067V10.076C12.5133 11.6813 13.352 12.5173 14.9946 12.5173C16.3573 12.5173 17.4293 11.6067 17.4293 10.076V5.61067C17.4293 4.18533 16.3666 3.164 14.9946 3.164ZM15.7026 10C15.7026 10.496 15.4493 10.8613 14.9933 10.8613C14.5253 10.8613 14.2546 10.4787 14.2546 10V5.76133C14.2546 5.26267 14.484 4.89333 14.96 4.89333C15.48 4.89333 15.7026 5.252 15.7026 5.76133V10ZM22.008 3.24V10.1547C21.8013 10.4133 21.3413 10.8373 21.012 10.8373C20.6506 10.8373 20.5613 10.5893 20.5613 10.224V3.24H18.868V10.8533C18.868 11.7533 19.1426 12.48 20.0506 12.48C20.5626 12.48 21.2746 12.2133 22.008 11.3427V12.348H23.7013V3.24H22.008ZM24.9453 21.7173C24.348 21.7173 24.224 22.1373 24.224 22.7347V23.6133H25.6493V22.7333C25.6506 22.1467 25.5266 21.7173 24.9453 21.7173ZM18.6746 21.7707C18.5626 21.828 18.452 21.916 18.3413 22.0347V27.4413C18.4733 27.5827 18.6 27.684 18.724 27.7467C18.9866 27.88 19.3706 27.8893 19.5493 27.6573C19.6426 27.5347 19.6893 27.336 19.6893 27.0587V22.58C19.6893 22.2867 19.632 22.0653 19.5173 21.9133C19.3213 21.656 18.9573 21.628 18.6746 21.7707ZM25.1106 14.844C21.6386 14.608 10.356 14.608 6.88929 14.844C3.13729 15.1 2.69463 17.3667 2.66663 23.3333C2.69463 29.2893 3.13329 31.5667 6.88929 31.8227C10.356 32.0587 21.6386 32.0587 25.1106 31.8227C28.8626 31.5667 29.3053 29.2987 29.3333 23.3333C29.3053 17.3773 28.8666 15.1 25.1106 14.844ZM8.67863 29.092H6.86129V19.0387H4.98129V17.332H10.5573V19.0387H8.67729L8.67863 29.092ZM15.14 29.092H13.5266V28.1347C13.2293 28.488 12.92 28.7573 12.5986 28.9413C11.7293 29.44 10.536 29.428 10.536 27.668V20.4173H12.148V27.068C12.148 27.4173 12.232 27.652 12.5773 27.652C12.892 27.652 13.3293 27.248 13.5253 27.0027V20.4173H15.1386L15.14 29.092ZM21.3493 27.2947C21.3493 28.368 20.948 29.2027 19.8746 29.2027C19.284 29.2027 18.792 28.9867 18.3426 28.4253V29.092H16.7146V17.332H18.3426V21.1187C18.7066 20.6747 19.2013 20.308 19.7773 20.308C20.9586 20.308 21.3506 21.3067 21.3506 22.4827V27.2947H21.3493ZM27.3106 24.9587H24.2253V26.596C24.2253 27.2467 24.2813 27.8093 24.9293 27.8093C25.6106 27.8093 25.6506 27.3507 25.6506 26.596V25.9933H27.3106V26.6453C27.3106 28.316 26.5933 29.3293 24.8933 29.3293C23.3533 29.3293 22.5653 28.2067 22.5653 26.6453V22.7507C22.5653 21.2453 23.56 20.1987 25.0146 20.1987C26.5626 20.1987 27.3093 21.1827 27.3093 22.7507L27.3106 24.9587Z" fill="white"/>
</svg>
